P2
3
2
255
76 150 28 
226 255 0 
